<svg width="40" height="40" viewBox="0 0 40 40" fill="none" xmlns="http://www.w3.org/2000/svg">
<path d="M29.3359 35.2921C29.216 35.2921 29.0983 35.2998 28.9827 35.3132C27.9575 32.2698 24.9802 29.9563 21.3311 29.4981V27.3256H18.6695V29.4981C15.0166 29.9568 12.0369 32.2744 11.0147 35.3224C10.8753 35.3027 10.7324 35.2921 10.5867 35.2921C9.10739 35.2921 7.9082 36.346 7.9082 37.646C7.9082 38.946 9.10739 39.9999 10.5867 39.9999C11.9314 39.9999 13.0444 39.129 13.2358 37.994C13.2748 37.8841 13.2958 37.7672 13.2958 37.646C13.2958 34.7973 15.6079 32.4147 18.6695 31.8707V35.5796C17.8382 35.9791 17.2744 36.7547 17.2744 37.646C17.2744 38.946 18.4736 39.9999 19.9528 39.9999C21.4321 39.9999 22.6313 38.946 22.6313 37.646C22.6313 36.789 22.11 36.0391 21.3311 35.6275V31.8708C24.2595 32.3912 26.5009 34.594 26.6904 37.2777C26.6688 37.3977 26.6575 37.5207 26.6575 37.6461C26.6575 38.9461 27.8566 40 29.3359 40C30.8152 40 32.0144 38.9461 32.0144 37.6461C32.0144 36.3461 30.8152 35.2921 29.3359 35.2921Z" fill="#3C3C3C"/>
<path d="M38.6692 12.434H35.0543C34.3192 12.434 33.7234 12.9576 33.7234 13.6036V17.1356C33.7234 18.2213 32.7173 19.1046 31.4805 19.1046H31.1679C31.1652 19.1046 31.1627 19.1049 31.1602 19.1049V19.1046H8.83976V19.1049C8.83718 19.1049 8.8346 19.1046 8.83202 19.1046H8.79086C7.55407 19.1046 6.5479 18.2213 6.5479 17.1356V13.6036C6.5479 12.9576 5.95208 12.434 5.21705 12.434H1.33084C0.595813 12.434 0 12.9576 0 13.6036C0 14.2495 0.595813 14.7732 1.33084 14.7732H3.8863V17.1356C3.8863 19.5111 6.0865 21.4438 8.79086 21.4438H8.83202C8.83469 21.4438 8.83718 21.4435 8.83976 21.4435V21.8567C8.83976 23.5827 10.4319 24.9819 12.3958 24.9819H27.6042C29.5681 24.9819 31.1602 23.5827 31.1602 21.8567V21.4435C31.1628 21.4435 31.1654 21.4438 31.168 21.4438H31.4806C34.1849 21.4438 36.3851 19.5112 36.3851 17.1356V14.7732H38.6692C39.4042 14.7732 40 14.2495 40 13.6036C40 12.9577 39.4041 12.434 38.6692 12.434Z" fill="#3C3C3C"/>
<path d="M29.3662 4.29479C29.3662 1.92668 27.174 0 24.4793 0H15.5207C12.826 0 10.6338 1.9266 10.6338 4.29479V16.7608H29.3662V4.29479Z" fill="#3C3C3C"/>
</svg>
