<svg width="24" height="25" viewBox="0 0 24 25" fill="none" xmlns="http://www.w3.org/2000/svg">
<path d="M22 6.86578H16" stroke="white" stroke-width="1.5" stroke-miterlimit="10" stroke-linecap="round" stroke-linejoin="round"/>
<path d="M6 6.86578H2" stroke="white" stroke-width="1.5" stroke-miterlimit="10" stroke-linecap="round" stroke-linejoin="round"/>
<path d="M10 10.4436C11.933 10.4436 13.5 8.84175 13.5 6.8658C13.5 4.88985 11.933 3.28802 10 3.28802C8.067 3.28802 6.5 4.88985 6.5 6.8658C6.5 8.84175 8.067 10.4436 10 10.4436Z" stroke="white" stroke-width="1.5" stroke-miterlimit="10" stroke-linecap="round" stroke-linejoin="round"/>
<path d="M22 18.1102H18" stroke="white" stroke-width="1.5" stroke-miterlimit="10" stroke-linecap="round" stroke-linejoin="round"/>
<path d="M8 18.1102H2" stroke="white" stroke-width="1.5" stroke-miterlimit="10" stroke-linecap="round" stroke-linejoin="round"/>
<path d="M14 21.688C15.933 21.688 17.5 20.0862 17.5 18.1102C17.5 16.1343 15.933 14.5325 14 14.5325C12.067 14.5325 10.5 16.1343 10.5 18.1102C10.5 20.0862 12.067 21.688 14 21.688Z" stroke="white" stroke-width="1.5" stroke-miterlimit="10" stroke-linecap="round" stroke-linejoin="round"/>
</svg>
